<?xml version="1.0" ?><!DOCTYPE svg  PUBLIC '-//W3C//DTD SVG 1.1//EN'  'http://www.w3.org/Graphics/SVG/1.1/DTD/svg11.dtd'><svg height="140px" id="Layer_1" style="enable-background:new 0 0 140 140;" version="1.1" viewBox="0 0 140 140" width="140px" xml:space="preserve" xmlns="http://www.w3.org/2000/svg" xmlns:xlink="http://www.w3.org/1999/xlink"><g><path d="M70,130c-33.084,0-60-26.916-60-60c0-33.083,26.916-60,60-60c33.085,0,60,26.917,60,60   C130,103.084,103.085,130,70,130z" style="fill:#F2F2F2;"/><circle cx="70" cy="70" r="58.064" style="fill:#F4F0D3;"/><g><path d="M70,108.71c-22.168,0-41.613-14.02-41.613-30c0-10.992,8.381-45.231,8.737-46.683    c0.089-0.361,0.376-0.639,0.738-0.716c0.362-0.076,0.738,0.061,0.966,0.353l15.488,19.921C56.073,50.64,60.788,48.71,70,48.71    c9.33,0,14.138,1.97,15.921,2.925l15.245-19.965c0.227-0.295,0.604-0.436,0.967-0.359c0.365,0.076,0.652,0.354,0.742,0.716    c0.357,1.452,8.738,35.691,8.738,46.683C111.613,94.69,92.167,108.71,70,108.71z" style="fill:#808080;"/><path d="M85.794,51.569l-0.05,0.065c-1.772-0.95-6.373-2.898-15.925-2.923    c-0.06,0.001-0.184,0.003-0.184,0.003v59.989c0,0,0.124,0.003,0.184,0.003c11.541-0.037,21.818-3.635,29.439-9.244l0.104,0.057    c0.594-0.436,1.168-0.885,1.728-1.344l-0.002,0.106c1.856-1.525,3.514-2.819,4.932-4.819h0.003c0.412-1,0.811-1.137,1.184-1.664    c1.031-1.465,1.896-3.042,2.584-4.611c0.046-0.103,0.086-0.232,0.129-0.336c0.169-0.399,0.326-0.815,0.47-1.221    c0.056-0.152,0.104-0.313,0.154-0.464c0.12-0.36,0.229-0.729,0.329-1.094c0.049-0.177,0.097-0.354,0.14-0.529    c0.087-0.351,0.162-0.705,0.229-1.062c0.033-0.183,0.072-0.365,0.104-0.549c0.061-0.369,0.104-0.742,0.145-1.115    c0.019-0.166,0.043-0.328,0.058-0.494c0.043-0.535,0.069-1.073,0.069-1.613c0-10.992-8.381-45.231-8.737-46.683    c-0.089-0.362-0.377-0.641-0.742-0.716c-0.362-0.077-0.74,0.063-0.967,0.359L85.921,51.634    C85.883,51.613,85.835,51.591,85.794,51.569z" style="fill:#666666;"/><g><path d="M37.944,32.076l15.544,22.863c1.688-0.945,6.37-4.294,15.225-4.294     c8.97,0,13.589,1.97,15.303,2.925l1.555-2.117c-2.021-1.002-6.793-2.744-15.568-2.744c-9.212,0-13.927,1.93-15.684,2.875     l-15.49-19.921c-0.228-0.292-0.604-0.428-0.966-0.353c-0.291,0.063-0.528,0.257-0.658,0.518     C37.597,31.845,37.85,31.951,37.944,32.076z" style="fill:#4D4D4D;"/></g><g><path d="M102.875,32.027c-0.09-0.362-0.377-0.641-0.742-0.716c-0.029-0.006-0.059-0.002-0.087-0.006     c1.786,12.767,4.729,35.631,4.729,43.534c0,15.98-19.447,30-41.614,30c-10.655,0-20.675-3.245-28.215-8.384     c7.745,7.334,19.921,12.255,33.054,12.255c22.167,0,41.612-14.02,41.612-30C111.613,67.718,103.232,33.479,102.875,32.027z" style="fill:#4D4D4D;"/></g><path d="M109.677,95.161c-0.161,0-0.324-0.04-0.474-0.125l-15.484-8.709    c-0.466-0.262-0.631-0.852-0.368-1.317c0.261-0.467,0.853-0.634,1.317-0.368l15.482,8.709c0.467,0.263,0.633,0.853,0.369,1.317    C110.343,94.983,110.015,95.161,109.677,95.161z" style="fill:#E6E6E6;"/><path d="M105.806,102.903c-0.161,0-0.323-0.041-0.474-0.125l-15.484-8.711    c-0.466-0.262-0.631-0.852-0.367-1.316c0.262-0.465,0.853-0.633,1.316-0.368l15.484,8.71c0.465,0.262,0.631,0.852,0.367,1.317    C106.472,102.726,106.144,102.903,105.806,102.903z" style="fill:#E6E6E6;"/><path d="M31.291,95.161c-0.338,0-0.667-0.178-0.845-0.493c-0.262-0.466-0.097-1.056,0.369-1.317    l15.484-8.709c0.465-0.266,1.056-0.099,1.317,0.368c0.263,0.466,0.097,1.056-0.369,1.317l-15.482,8.709    C31.614,95.121,31.452,95.161,31.291,95.161z" style="fill:#E6E6E6;"/><path d="M35.162,102.903c-0.339,0-0.667-0.178-0.845-0.493c-0.262-0.466-0.097-1.056,0.369-1.317    l15.484-8.71c0.466-0.265,1.056-0.097,1.317,0.368c0.263,0.466,0.097,1.057-0.369,1.316l-15.483,8.711    C35.486,102.862,35.323,102.903,35.162,102.903z" style="fill:#E6E6E6;"/><path d="M70,92.787c-0.195,0-0.376-0.103-0.477-0.271l-5.808-9.832c-0.102-0.17-0.103-0.576-0.005-0.75    c0.099-0.172,0.282-0.473,0.48-0.473h11.617c0.198,0,0.383,0.301,0.479,0.473c0.1,0.174,0.098,0.481-0.004,0.652l-5.809,9.881    C70.376,92.636,70.195,92.787,70,92.787z" style="fill:#FFA8AC;"/><g><g><path d="M54.386,77.497c-7.121,0-12.499-5.429-12.787-12.907c-0.017-0.445,0.271-0.844,0.699-0.967      c1.188-0.341,2.427-0.514,3.686-0.514c7.063,0,13.708,5.445,14.81,12.139c0.073,0.443-0.17,0.881-0.587,1.052      C58.272,77.095,56.314,77.497,54.386,77.497z" style="fill:#FFCF47;"/><path d="M56.061,67.057c-0.656-0.257-1.368-0.404-2.115-0.404c-3.207,0-5.807,2.6-5.807,5.807      c0,1.705,0.739,3.233,1.909,4.295c1.344,0.475,2.796,0.742,4.338,0.742c0.966,0,1.938-0.102,2.911-0.303      c1.484-1.052,2.455-2.778,2.455-4.735c0-0.2-0.011-0.396-0.029-0.591C58.865,70.051,57.6,68.415,56.061,67.057z" style="fill:#F2F2F2;"/><path d="M43.534,66.525c-0.017-0.445,0.271-0.844,0.699-0.967c1.188-0.341,2.427-0.514,3.685-0.514      c3.594,0,7.073,1.413,9.775,3.678c-2.834-3.37-7.182-5.614-11.71-5.614c-1.259,0-2.498,0.173-3.686,0.514      c-0.428,0.123-0.716,0.521-0.699,0.967c0.166,4.286,2.008,7.892,4.885,10.196C44.735,72.593,43.659,69.752,43.534,66.525z" style="fill:#1A1A1A;"/><path d="M53.946,77.488c2.298-3.496,1.854-8.981,0-10.835C52.09,68.507,51.647,73.992,53.946,77.488z" style="fill:#1A1A1A;"/></g><g><path d="M85.613,77.497c7.121,0,12.498-5.429,12.787-12.907c0.018-0.445-0.271-0.844-0.699-0.967      c-1.188-0.341-2.428-0.514-3.686-0.514c-7.064,0-13.708,5.445-14.811,12.139c-0.073,0.443,0.171,0.881,0.588,1.052      C81.729,77.095,83.687,77.497,85.613,77.497z" style="fill:#FFCF47;"/><path d="M83.939,67.057c0.656-0.257,1.367-0.404,2.115-0.404c3.207,0,5.807,2.6,5.807,5.807      c0,1.705-0.738,3.233-1.908,4.295c-1.344,0.475-2.797,0.742-4.338,0.742c-0.967,0-1.938-0.102-2.912-0.303      c-1.483-1.052-2.455-2.778-2.455-4.735c0-0.2,0.012-0.396,0.029-0.591C81.135,70.051,82.4,68.415,83.939,67.057z" style="fill:#F2F2F2;"/><path d="M96.466,66.525c0.017-0.445-0.271-0.844-0.7-0.967c-1.188-0.341-2.427-0.514-3.686-0.514      c-3.592,0-7.071,1.413-9.773,3.678c2.834-3.37,7.182-5.614,11.71-5.614c1.259,0,2.498,0.173,3.685,0.514      c0.43,0.123,0.718,0.521,0.701,0.967c-0.166,4.286-2.009,7.892-4.887,10.196C95.266,72.593,96.341,69.752,96.466,66.525z" style="fill:#1A1A1A;"/><path d="M86.055,77.488c-2.299-3.496-1.855-8.981,0-10.835C87.91,68.507,88.354,73.992,86.055,77.488z" style="fill:#1A1A1A;"/></g></g><ellipse cx="66.447" cy="83.529" rx="0.771" ry="1.165" style="fill:#FFCDCF;" transform="matrix(0.5571 -0.8304 0.8304 0.5571 -39.9368 92.1743)"/><path d="M69.635,92.636c0,0.088,0.223,0.151,0.359,0.151c0.196,0,0.379-0.132,0.479-0.302l5.811-9.86    c0.101-0.171,0.104-0.519,0.004-0.688c-0.098-0.174-0.279-0.475-0.479-0.475h-6.174V92.636z" style="fill:#E6979B;"/></g></g></svg>